<svg xmlns="http://www.w3.org/2000/svg" viewBox="0 0 1120 410" role="img" aria-label="Count weights and biases by layer" style="font-family:Avenir Next,Segoe UI,sans-serif"><line x1="144" y1="145" x2="436" y2="95" stroke="#D9DDE5" stroke-width="2" stroke-dasharray=""/><line x1="144" y1="145" x2="436" y2="215" stroke="#D9DDE5" stroke-width="2" stroke-dasharray=""/><line x1="144" y1="145" x2="436" y2="335" stroke="#D9DDE5" stroke-width="2" stroke-dasharray=""/><line x1="144" y1="285" x2="436" y2="95" stroke="#D9DDE5" stroke-width="2" stroke-dasharray=""/><line x1="144" y1="285" x2="436" y2="215" stroke="#D9DDE5" stroke-width="2" stroke-dasharray=""/><line x1="144" y1="285" x2="436" y2="335" stroke="#D9DDE5" stroke-width="2" stroke-dasharray=""/><line x1="484" y1="95" x2="826" y2="215" stroke="#D9DDE5" stroke-width="2" stroke-dasharray=""/><line x1="484" y1="215" x2="826" y2="215" stroke="#D9DDE5" stroke-width="2" stroke-dasharray=""/><line x1="484" y1="335" x2="826" y2="215" stroke="#D9DDE5" stroke-width="2" stroke-dasharray=""/><circle cx="120" cy="145" r="28" fill="#E4ECFF" stroke="#245EDB" stroke-width="2"/><text x="120" y="153" font-size="22" fill="#245EDB" text-anchor="middle" font-weight="500">x₁</text><circle cx="120" cy="285" r="28" fill="#E4ECFF" stroke="#245EDB" stroke-width="2"/><text x="120" y="293" font-size="22" fill="#245EDB" text-anchor="middle" font-weight="500">x₂</text><circle cx="460" cy="95" r="28" fill="#E4ECFF" stroke="#245EDB" stroke-width="2"/><text x="460" y="103" font-size="22" fill="#245EDB" text-anchor="middle" font-weight="500">h₁</text><circle cx="460" cy="215" r="28" fill="#E4ECFF" stroke="#245EDB" stroke-width="2"/><text x="460" y="223" font-size="22" fill="#245EDB" text-anchor="middle" font-weight="500">h₂</text><circle cx="460" cy="335" r="28" fill="#E4ECFF" stroke="#245EDB" stroke-width="2"/><text x="460" y="343" font-size="22" fill="#245EDB" text-anchor="middle" font-weight="500">h₃</text><circle cx="850" cy="215" r="28" fill="#E4ECFF" stroke="#245EDB" stroke-width="2"/><text x="850" y="223" font-size="22" fill="#245EDB" text-anchor="middle" font-weight="500">ŷ</text><text x="290" y="385" font-size="27" fill="#245EDB" text-anchor="middle" font-weight="500">2 × 3 + 3 = 9</text><text x="680" y="385" font-size="27" fill="#245EDB" text-anchor="middle" font-weight="500">3 × 1 + 1 = 4</text><text x="1040" y="225" font-size="47" fill="#245EDB" text-anchor="middle" font-weight="500">13</text><text x="1040" y="267" font-size="20" fill="#4A5160" text-anchor="middle" font-weight="500">parameters</text></svg>